<svg width="72" height="72" viewBox="0 0 72 72" fill="none" xmlns="http://www.w3.org/2000/svg">
<path d="M36 32C46 32 54.5 30.4333 61.5 27.3C68.5 24.1667 72 20.4 72 16C72 11.6 68.5 7.83333 61.5 4.7C54.5 1.56667 46 0 36 0C26 0 17.5 1.56667 10.5 4.7C3.5 7.83333 0 11.6 0 16C0 20.4 3.5 24.1667 10.5 27.3C17.5 30.4333 26 32 36 32ZM36 42C38.7333 42 42.1507 41.716 46.252 41.148C50.3533 40.58 54.3027 39.664 58.1 38.4C61.8973 37.136 65.164 35.4867 67.9 33.452C70.636 31.4173 72.0027 28.9333 72 26V36C72 38.9333 70.6333 41.4173 67.9 43.452C65.1667 45.4867 61.9 47.136 58.1 48.4C54.3 49.664 50.3507 50.5813 46.252 51.152C42.1533 51.7227 38.736 52.0053 36 52C33.264 51.9947 29.848 51.7107 25.752 51.148C21.656 50.5853 17.7053 49.6693 13.9 48.4C10.0947 47.1307 6.828 45.4813 4.1 43.452C1.372 41.4227 0.00533333 38.9387 0 36V26C0 28.9333 1.36667 31.4173 4.1 33.452C6.83333 35.4867 10.1 37.136 13.9 38.4C17.7 39.664 21.6507 40.5813 25.752 41.152C29.8533 41.7227 33.2693 42.0053 36 42ZM36 62C38.7333 62 42.1507 61.716 46.252 61.148C50.3533 60.58 54.3027 59.664 58.1 58.4C61.8973 57.136 65.164 55.4867 67.9 53.452C70.636 51.4173 72.0027 48.9333 72 46V56C72 58.9333 70.6333 61.4173 67.9 63.452C65.1667 65.4867 61.9 67.136 58.1 68.4C54.3 69.664 50.3507 70.5813 46.252 71.152C42.1533 71.7227 38.736 72.0053 36 72C33.264 71.9947 29.848 71.7107 25.752 71.148C21.656 70.5853 17.7053 69.6693 13.9 68.4C10.0947 67.1307 6.828 65.4813 4.1 63.452C1.372 61.4227 0.00533333 58.9387 0 56V46C0 48.9333 1.36667 51.4173 4.1 53.452C6.83333 55.4867 10.1 57.136 13.9 58.4C17.7 59.664 21.6507 60.5813 25.752 61.152C29.8533 61.7227 33.2693 62.0053 36 62Z" fill="#FF9F1C"/>
</svg>
